<?xml version="1.0" standalone="no"?>
<!DOCTYPE svg PUBLIC "-//W3C//DTD SVG 20010904//EN"
 "http://www.w3.org/TR/2001/REC-SVG-20010904/DTD/svg10.dtd">
<svg version="1.0" xmlns="http://www.w3.org/2000/svg"
 width="310.000000pt" height="310.000000pt" viewBox="0 0 310.000000 310.000000"
 preserveAspectRatio="xMidYMid meet">
<metadata>
Created by potrace 1.11, written by Peter Selinger 2001-2013
</metadata>
<g transform="translate(0.000000,310.000000) scale(0.100000,-0.100000)"
fill="#000000" stroke="none">
<path d="M1836 3093 c-36 -9 -92 -51 -124 -90 -16 -21 -44 -81 -62 -133 -18
-52 -35 -102 -38 -110 -3 -8 -6 -19 -7 -25 -9 -37 -102 -269 -140 -351 -88
-186 -168 -288 -251 -320 -49 -19 -79 -8 -94 32 -16 40 -18 124 -6 207 7 42 8
77 4 77 -11 0 -115 -220 -122 -257 -3 -18 1 -86 9 -150 8 -65 15 -170 15 -234
0 -123 2 -129 50 -129 33 0 44 -26 31 -70 -14 -48 -44 -61 -70 -31 -20 23 -47
28 -49 9 -1 -7 -4 -25 -8 -40 -5 -24 -3 -27 22 -30 24 -2 29 -8 32 -35 6 -64
-38 -95 -80 -56 -22 20 -27 16 -35 -31 -5 -34 -4 -36 21 -36 34 0 46 -41 23
-79 -18 -30 -54 -40 -63 -17 -9 24 -29 19 -42 -9 -18 -38 -15 -53 11 -57 18
-2 22 -10 23 -38 1 -55 -42 -90 -74 -58 -6 6 -14 10 -16 7 -3 -2 -38 -90 -78
-195 -40 -105 -80 -201 -89 -214 -14 -22 -15 -19 -9 38 5 55 4 59 -12 51 -9
-5 -42 -9 -72 -9 -99 0 -211 -60 -237 -127 -42 -112 -50 -283 -14 -323 21 -23
68 -40 116 -42 96 -3 201 99 411 402 62 90 335 527 403 647 6 10 35 58 65 106
30 48 82 133 115 187 93 153 135 219 192 300 29 41 58 83 65 94 13 19 70 94
123 162 64 83 243 254 315 301 167 109 414 181 588 171 46 -2 68 0 65 7 -4 5
-28 38 -56 73 l-49 62 -116 0 c-65 -1 -144 -7 -177 -14 -76 -16 -174 -45 -200
-58 -14 -8 -12 -1 9 21 17 17 35 31 42 31 7 0 14 3 16 8 5 12 65 42 136 67 84
30 47 33 -57 4 -89 -24 -221 -86 -304 -140 -32 -22 -60 -39 -62 -39 -14 0 46
78 90 118 107 95 266 167 393 179 34 3 65 9 67 14 8 13 -106 100 -170 130 -33
16 -84 33 -114 39 -54 10 -318 12 -355 3z"/>
<path d="M1392 2508 c-71 -93 -131 -112 -176 -55 -14 17 -26 26 -27 20 -1 -7
-2 -16 -3 -20 -11 -39 -20 -176 -17 -254 2 -80 62 -45 140 83 52 84 136 266
128 275 -3 2 -23 -19 -45 -49z"/>
<path d="M2617 2504 c-1 -1 -30 -4 -64 -7 -158 -15 -362 -97 -485 -196 -111
-90 -249 -240 -347 -381 -108 -153 -235 -347 -276 -420 -26 -47 -51 -87 -55
-90 -4 -3 -74 -117 -157 -255 -407 -679 -567 -898 -728 -1000 -22 -14 -49 -19
-105 -19 -94 0 -151 27 -178 86 -20 44 -29 47 -38 13 -9 -34 4 -94 27 -132 30
-49 69 -63 169 -63 214 0 393 112 629 395 129 155 157 196 614 889 335 509
519 710 735 804 106 47 182 42 182 -11 0 -30 -45 -111 -99 -179 -54 -67 -223
-234 -387 -383 -252 -228 -324 -346 -324 -527 0 -103 22 -265 51 -389 12 -52
22 -112 22 -134 1 -56 -27 -109 -69 -131 -32 -18 -45 -34 -25 -34 27 0 220 49
239 61 12 8 31 32 42 54 19 40 19 41 -1 150 -51 282 -73 478 -60 536 20 88 91
157 334 325 318 220 465 369 581 587 19 37 33 67 29 67 -3 0 -1 6 5 13 17 20
42 125 42 173 0 115 -87 188 -233 197 -37 2 -68 3 -70 1z"/>
<path d="M2281 421 c-26 -23 -20 -41 14 -41 28 0 41 28 22 47 -11 11 -17 10
-36 -6z"/>
<path d="M2127 368 l-48 -10 20 -22 c30 -32 76 -24 90 15 11 33 13 32 -62 17z"/>
<path d="M2236 294 c-19 -19 -20 -28 -3 -42 8 -7 19 -5 36 9 19 16 21 22 11
34 -16 19 -25 19 -44 -1z"/>
<path d="M1882 258 c-128 -8 -225 -28 -361 -73 -115 -39 -339 -143 -360 -169
-12 -14 66 -15 853 -15 528 0 866 4 866 10 0 5 -10 9 -22 10 -13 0 -32 2 -43
4 -11 2 -83 11 -160 19 -186 21 -483 55 -520 60 -16 2 -76 10 -132 17 -57 7
-103 15 -103 18 0 7 74 54 133 85 20 11 37 23 37 27 0 11 -78 14 -188 7z"/>
</g>
</svg>
