<?xml version="1.0" encoding="utf-8"?>
<!-- Generator: Adobe Illustrator 17.0.0, SVG Export Plug-In . SVG Version: 6.00 Build 0)  -->
<!DOCTYPE svg PUBLIC "-//W3C//DTD SVG 1.1//EN" "http://www.w3.org/Graphics/SVG/1.1/DTD/svg11.dtd">
<svg version="1.1" id="Layer_1" xmlns="http://www.w3.org/2000/svg" xmlns:xlink="http://www.w3.org/1999/xlink" x="0px" y="0px"
	 width="280px" height="280px" viewBox="0 0 280 280" enable-background="new 0 0 280 280" xml:space="preserve">
<path fill="#FBBB86" d="M279.814,140.467c0,76.936-62.369,139.304-139.304,139.304c-73.479,0-139.304-58.199-139.304-139.304
	C1.206,63.532,63.575,1.163,140.51,1.163S279.814,63.531,279.814,140.467z"/>
<g>
	<path fill="#010101" d="M96.989,232.509c-0.734-1.798-1.467-3.596-2.3-5.636c3.595-0.689,6.176-0.384,6.479,4.16
		c0.349-0.074,0.698-0.146,1.047-0.22c0.914-1.981,1.828-3.962,2.882-6.247c-2.65-0.674-6.781,2.132-6.999-2.772
		c-0.035-0.799,2.615-1.717,4.523-2.886c-0.561-3.035-9.591-1.359-5.227-8.767c1.685,1.595,3.222,3.051,4.689,4.44
		c0.935-0.666,2.224-1.584,3.513-2.502c0.237,2.2,0.475,4.401,0.775,7.178c0.614-0.8,1.344-1.8,2.126-2.758
		c1.067-1.308,1.958-3.356,3.302-3.729c3.831-1.064,4.619-3.69,4.906-7.028c0.139-1.614,0.695-3.191,1.187-5.325
		c-1.071-0.066-2.294-0.14-3.288-0.201c0.188,2.111,0.329,3.695,0.471,5.279c-1.454,0-2.907,0-4.439,0
		c0.335-1.68,0.625-3.136,1.109-5.571c-2.793,2.738-4.901,4.805-7.288,7.144c-1.571-4.137-1.571-4.137,4.741-9.179
		c-1.359-0.476-2.459-0.962-3.611-1.233c-0.971-0.228-2.002-0.205-3.748-0.359c3.978-3.923,6.771-2.395,9.509,0.134
		c1.694,1.565,3.136,2.245,3.205-1.073c4.74-0.673,3.839,4.638,6.525,6.301c-0.03-6.478-0.759-7.09-6.606-8.386
		c-1.814-0.402-3.683-2.059-4.815-3.649c-1.339-1.879-1.977-4.282-2.794-6.504c-1.3-3.533-2.584-7.007-7.034-7.646
		c-0.479-0.069-1.009-0.427-1.338-0.806c-4.542-5.22-9.087-10.44-13.561-15.719c-2.886-3.405-5.267-7.345-8.562-10.272
		c-5.999-5.33-7.207-11.431-4.308-18.535c2.662-6.524,7.354-10.626,14.59-11.651c5.693-0.807,10.672,0.106,14.746,5.173
		c3.835-9.143,9.634-16.406,17.357-21.955c10.088-7.247,21.223-11.297,33.913-10.487c3.422,0.218,6.909-0.546,10.364-0.88
		c2.49-0.241,4.974-0.532,7.465-0.766c0.776-0.073,2.054,0.263,2.269-0.093c2.05-3.388,3.565-0.664,5.208,0.359
		c0.518,0.323,0.961,0.764,1.812,1.455c0.256-2.172,0.456-3.875,0.657-5.578c0.416-0.212,0.833-0.425,1.249-0.637
		c1.949,2.38,3.898,4.76,5.792,7.073c0.812-1.438,1.699-3.008,2.585-4.578c0.541,0.12,1.082,0.24,1.624,0.36
		c-0.286,3.448-0.571,6.897-0.863,10.419c1.91-1.003,3.845-2.019,5.772-3.03c-0.401-1.072-0.913-2.439-1.704-4.551
		c2.05,0.692,3.144,1.06,5.312,1.792c-0.993-3.536-1.833-6.53-2.674-9.525c0.503-0.212,1.006-0.425,1.51-0.637
		c1.104,1.481,2.208,2.962,3.345,4.488c0.463-2.581,0.92-5.126,1.376-7.672c0.517-0.031,1.033-0.061,1.55-0.092
		c0.354,2.033,0.708,4.066,0.998,5.731c1.894-2.486,3.919-5.146,5.944-7.806c0.614,0.416,1.228,0.831,1.842,1.247
		c-1.702,2.386-3.404,4.773-5.106,7.16c0.143,0.19,0.286,0.381,0.428,0.572c1.328-0.704,2.657-1.408,3.997-2.117
		c3.236,6.134,6.292,11.925,9.617,18.228c0.109,0.022,1.086,0.219,2.062,0.417c-0.422,0.993-0.689,2.097-1.3,2.955
		c-1.124,1.581-2.45,3.017-3.285,5.117c0.87-0.265,1.74-0.531,2.615-0.798c0.913,3.376-0.49,5.006-6.847,7.57
		c1.737,0.524,3.081,0.929,4.426,1.335c0.055,0.454,0.109,0.909,0.164,1.363c-1.918,0.445-3.837,0.889-5.679,1.316
		c3.471,3.855,5.375,8.876,4.68,14.856c-0.114,0.977,1.382,2.141,2.33,3.499c-0.933,0.707-1.916,1.451-2.988,2.262
		c1.186,1.005,2.737,1.788,3.376,3.038c0.454,0.888-0.323,2.405-0.519,3.473c0.925,1.941,1.941,4.073,2.957,6.204
		c-1.464,0.065-2.928,0.129-4.679,0.206c0,1.698,0,3.705,0,6.853c-2.084-1.776-3.462-2.95-4.828-4.115
		c-1.192,1.843-2.449,3.772-3.692,5.711c-1.507,2.353-3.203,3.284-5.252,0.39c-4.525,4.392-8.802,8.543-13.276,12.885
		c1.278,6.595,2.644,13.927,4.163,21.228c0.287,1.378,0.979,2.785,1.833,3.914c6.933,9.17,10.333,19.744,12.649,30.814
		c0.378,1.807,1.366,3.862,2.733,5.025c8.754,7.443,3.607,9.826,1.673,4.529c-0.397,0.095-0.793,0.189-1.189,0.284
		c0,0.991,0,1.982,0,2.973c-0.236,0.03-0.473,0.059-0.71,0.089c-0.711-2.161-1.421-4.321-2.132-6.482
		c-0.197,0.026-0.393,0.052-0.59,0.078c0,2.541,0,5.083,0,7.625c-0.388,0.024-0.776,0.048-1.165,0.071
		c-0.196-4.077-0.391-8.152-0.587-12.229c-0.295,0.016-0.59,0.033-0.885,0.049c0,4.718-0.787,9.609,0.203,14.109
		c1.189,5.403-10.381,11.883-13.736,5.222c0.311,8.34,0.686,6.097,5.012,12.212c-2.127,0.996-2.127,0.996-2.127,0.996
		c-3.983,2.317-6.249,2.736-6.67,2.937c-12.648,5.467-18.854,5.855-26.95,7.531c-1.748,0.362-3.483-5.595-4.649-7.505
		c-1.402,1.662-2.739,3.246-3.643,4.318c1.451,2.857,1.488,4.726-1.612,4.565c-3.445,0.311-3.777-1.54-2.758-3.366
		c-1.457-1.759-3.199-3.861-5.063-6.111c-1.524,1.252-3.006,2.469-4.069,3.343c1.923,1.582,3.963,3.26,6.003,4.938
		c-0.094,0.415-0.357,1.289-0.452,1.703c-4.162,0-7.059,0.951-13.392,0.13c1.78-1.703,3.122-3.414,4.647-4.873
		c-3.238-0.269-5.825-4.313-8.76,0.103c0.812,1.678-1.714,3.859-3.654,3.879c-4.094,0.044-32.303-2.795-37.623-8.709
		c0,0,6.153,2.285,0,0c-4.216-0.71-10.574-4.469-9.239-3.823c6.1-6.736,14.652-12.743,16.79-22.507
		c-3.588-0.074-4.916,2.842-6.576,5.156c-1.64,2.287-3.053,4.736-5.193,6.817c0.272-1.037,0.544-2.073,0.979-3.732
		c-3.989,3.993-7.313,7.682-11.044,10.898c-0.486-0.254,1.573-1.656,0,0c-0.901,1.024,4.989-5.542,0,0
		c-1.117,1.241-2.334-0.843-5.466-2.218c15.953-11.94,5.268,1,0,0c10.419-10.766,11.762-12.448,24.328-20.858
		c2.753-1.842,2.97-4.486,2.51-7.389L96.989,232.509z M132.476,197.427c-5.071,1.78-8.595,7.484-7.618,11.842
		c2.463-3.191,5.104-6.539,7.623-9.975c0.288-0.393-0.106-1.285-0.184-1.946c4.155-1.444,5.851-5.082,7.672-8.617
		c-0.701,0.331-1.401,0.662-2.101,0.993c2.886-2.858,5.771-5.716,8.647-8.564c-5.494-6.737-3.811-14.499,0.239-21.578
		c3.727-6.515,8.645-11.953,8.623-20.506c-0.012-4.322,0.462-7.525-3.208-10.192c-0.403-0.293-0.657-0.82-0.908-1.278
		c-0.072-0.132,0.104-0.401,0.169-0.618c0.629,0.261,1.254,0.52,2.696,1.119c-1.929-3.01-3.394-5.298-5.32-8.304
		c2.018,1.441,3.313,2.366,4.608,3.29c0.261-0.311,0.521-0.622,0.782-0.933c-4.834-4.533-9.669-9.066-14.513-13.607
		c6.854,2.679,13.708,5.359,20.562,8.038c-0.169-1.237-0.759-2.15-1.591-2.521c-6.01-2.68-11.912-5.757-18.161-7.698
		c-5.185-1.61-10.779-2.255-16.229-2.504c-2.565-0.117-5.217,1.7-7.83,2.64c0.546,1.027,0.688,1.118,0.785,1.083
		c0.614-0.219,1.205-0.514,1.828-0.698c7.157-2.108,14.128-2.003,20.778,1.793c-0.768-0.191-1.537-0.378-2.303-0.575
		c-14.439-3.72-24.328,0.17-30.613,12.359c-1.517,2.942-3.401,6.131-1.75,9.792c6.624-1.43,8.067-1.018,9.166,2.478
		c-9.832-0.729-13.019,1.272-11.541,7.006c2.42-0.568,4.872-1.707,7.231-1.539c2.391,0.17,4.689,1.631,7.151,2.574
		c-1.629-4.083-5.745-5.284-11.515-3.741c2.839-2.451,6.026-2.035,9.367-1.046c2.46,0.728,3.595,2.279,2.976,4.695
		c-0.727,2.834-1.798,5.58-2.72,8.365c-0.218-0.072-0.436-0.145-0.655-0.217c0.302-1.934,0.605-3.869,0.743-4.752
		c-3.032-0.994-5.381-1.764-8.22-2.694c-0.277,0.854-0.704,2.17-1.153,3.551c-2.083-0.371-5.176-2.292-5.275,1.807
		c-0.135,5.599-0.354,11.388,0.862,16.779c1.528,6.766,4.442,13.223,6.814,19.793c2.777,7.694,5.614,9.137,13.551,7.038
		c0.281-0.075,0.632,0.117,1.219,0.242c-0.807,0.743-1.396,1.287-1.985,1.829c0.112,0.223,0.223,0.446,0.335,0.669
		c2.63-0.995,5.26-1.99,8.322-3.148c-1.516,2.01-2.606,3.455-3.696,4.9c0.322,0.271,0.644,0.543,0.966,0.814
		c0.829-0.365,1.657-0.729,2.485-1.094C128.033,198.067,131.936,196.048,132.476,197.427z M171.927,142.078
		c-1.925-0.134-3.851-0.268-5.777-0.401c0.024,0.181,0.048,0.361,0.072,0.542c1.149,0.513,2.297,1.027,3.446,1.54
		c-0.107,0.287-0.215,0.573-0.323,0.86c-1.308-0.125-2.616-0.249-5.042-0.48c2.902,4.286,5.272,7.787,7.642,11.288
		c0.155-0.045,0.31-0.091,0.465-0.137c-0.615-2.205-1.23-4.41-1.844-6.615c0.344-0.105,0.688-0.209,1.033-0.314
		c0.888,2.505,1.777,5.011,2.666,7.516c0.254-1.651,0.225-3.294-0.166-4.845c-0.397-1.574-1.15-3.058-1.747-4.58
		c0.24-0.108,0.48-0.216,0.72-0.324c0.978,1.817,1.957,3.634,3.079,5.719c1.155-4.188-0.778-6.837-3.315-9.26
		c1.845,0.875,3.689,1.751,5.659,2.685c-0.706-1.316-1.42-2.646-2.133-3.976c0.264-0.151,0.528-0.302,0.793-0.453
		c1.174,1.577,2.348,3.155,3.517,4.727c-0.921-7.45-3.167-9.025-11.103-7.178c1.515,0.336,2.449,0.544,4.265,0.947
		c-1.561,0.291-2.236,0.417-3.217,0.6C171.128,140.776,171.527,141.427,171.927,142.078z M168.225,122.758
		c-0.262,1.834-0.524,3.668-0.786,5.503c0.168-0.027,0.337-0.055,0.505-0.083c1.222-2.34,2.444-4.679,3.666-7.019
		c0.142,0.096,0.285,0.191,0.427,0.287c-0.739,2.262-1.479,4.524-2.218,6.786c0.347,0.096,0.695,0.192,1.043,0.288
		c0.925-1.836,1.851-3.672,2.776-5.508c0.207,0.096,0.414,0.192,0.621,0.288c-0.436,1.534-0.873,3.068-1.376,4.84
		c2.518,0.437,4.537,0.787,6.915,1.199c-1.979-3.578-4.513-6.717-1.046-10.302c-0.777,4.17,0.08,7.396,3.561,10.507
		c2.076,1.855,3.706,1.562,4.942,0.602c1.109-0.862,1.487-2.978,1.666-4.598c0.097-0.886-0.887-1.892-1.826-3.691
		c5.335,4.861,4.724,7.303-1.855,11.803c2.247,0.222,4.494,0.443,6.671,0.657c3.107-5.277,4.42-10.532,1.876-16.306
		c0.422-0.03,0.843-0.06,1.265-0.09c0.504,3.086,1.008,6.172,1.506,9.222c2.707-1.156,2.707-1.156,0.709-7.032
		c0.743-0.582,1.923-1.24,1.842-1.483c-1.213-3.676,1.284-8.729-3.94-10.927c-0.06-0.64,0.121-1.632-0.218-1.864
		c-2.498-1.707-5.044-3.362-7.689-4.828c-1.656-0.918-3.854-1.09-5.202-2.283c-2.761-2.445-3.845-1.036-4.846,1.612
		c-0.802-0.881-1.549-1.701-2.47-2.712c-0.811,1.19-1.459,2.143-2.191,3.217c-0.808-0.321-1.617-0.643-2.677-1.064
		c-0.335,1.058-0.629,1.985-0.95,3c2.504,0.918,4.926,1.523,7.057,2.668c2.061,1.106,3.823,2.768,5.704,4.175
		c0.116-0.206,0.362-0.643,0.609-1.08c0.308,0.085,0.616,0.17,0.924,0.255c-0.314,1.845-0.628,3.69-0.997,5.859
		c-2.919-2.207-5.031-3.804-7.144-5.4c-0.181,0.195-0.363,0.389-0.545,0.583c0.669,0.93,1.338,1.859,2.079,2.889
		c-1.369,0.266-2.485,0.483-4.749,0.923c2.357,1.109,3.601,1.694,5.042,2.371c-2.022,1.272-3.657,2.3-5.292,3.328
		c0.314-1.139,1.219-2.565,0.831-3.362c-1.152-2.365,0.097-7.203,2.908-8.752c-2.707-1.484-5.139-3.295-7.87-4.12
		c-1.461-0.442-4.565-0.796-3.961,2.96c0.174,1.081-0.61,2.333-1.013,3.485c-0.412,1.18-0.896,2.336-1.348,3.502
		c0.221,0.067,0.442,0.134,0.663,0.201c1.563-1.458,3.126-2.917,4.689-4.375c0.4,0.421,0.799,0.842,1.199,1.263
		c-1.39,0.627-2.78,1.255-4.171,1.882c0.3,0.336,0.601,0.671,0.901,1.007c1.073,0.127,2.146,0.254,2.707,0.32
		c-1.409,1.55-2.915,3.066-4.243,4.724c-0.723,0.903-1.825,2.72-1.582,2.968c1.045,1.061,2.527,1.692,3.635,2.352
		c0.079,1.566,0.174,3.46,0.299,5.932C166.526,126.527,167.376,124.642,168.225,122.758z M119.623,273.252
		c7.701-9.935,12.853-13.67,24.09-19.746c-5.513,5.589-11.026,11.178-16.539,16.767c0.415,0.417,0.829,0.833,1.243,1.251
		c2.003-1.886,4.006-3.771,6.117-5.759c0.213,0.345,0.497,0.805,1.179,1.91c4.411-4.702,8.689-9.263,12.968-13.824
		c0.133,0.115,0.267,0.23,0.4,0.345c-0.759,1.361-1.519,2.721-2.279,4.081c0.196,0.127,0.391,0.253,0.586,0.38
		c2.011-2.188,4.022-4.376,6.033-6.565c0.36,0.385,0.719,0.771,1.079,1.157c-5.416,4.882-10.832,9.764-16.514,14.886
		c0.364,0.541,0.969,1.441,1.648,2.452c2.359-1.743,4.456-3.293,6.617-4.891c2.888,2.418,5.636,4.719,8.227,6.888
		c1.501-1.712,3.345-3.816,5.421-6.183c2.499,3.146,4.529,5.703,6.889,8.675c-0.301-2.285-0.542-4.112-0.783-5.94
		c0.191-0.052,0.381-0.105,0.572-0.158c0.494,0.852,0.989,1.705,1.93,3.325c-0.19-3.108-0.32-5.239-0.488-7.984
		c2.559,1.874,0.163,7.988,5.801,4.81c1.084,2.306,3.109,2.861,2.878,0.933c0.371-0.085,0.742-0.17,1.113-0.255
		c1.19,2.664-1.031-2.137,2.914-8.132c2.014,6.089,2.177,0.385-0.152-8.016c0.339-0.093,0.678-0.186,1.017-0.278
		c1.699,5.856,3.399,11.713,5.098,17.569c0.322-0.088,0.644-0.177,0.965-0.265c-0.809-11.822-7.15-22.299-8.798-33.928
		c2.189,6.236,4.379,12.471,6.568,18.707c0.436-0.152,0.873-0.305,1.309-0.457c-2.065-6.25-4.238-12.468-6.169-18.759
		c-2.378-7.747-4.523-15.566-6.855-23.329c-0.315-1.046-1.134-1.941-1.72-2.906c-0.757,0.644-1.514,1.288-2.612,2.222
		c0.653-4.385,1.283-8.611,1.912-12.837c-0.217-0.08-0.434-0.16-0.651-0.24c-1.001,2.159-2.002,4.317-2.767,5.967
		c-1.266,0-2.589-0.414-3.209,0.071c-2.767,2.16-5.134,1.25-7.967-1.49c4.133-1.845,8.267-3.69,12.4-5.534
		c-0.131-0.364-0.263-0.728-0.394-1.091c-1.792,0.34-3.584,0.681-5.859,1.113c0.647-1.237,1.075-2.053,1.63-3.115
		c-2.839,2.251-5.348,4.294-7.918,6.261c-2.579,1.975-5.579,3.535-7.755,5.872c-4.404,4.731-8.409,9.837-12.514,14.842
		c-2.719,3.315-6.123,5.813-9.299,8.608c-7.049,6.204-13.036,13.598-19.741,20.218c-2.452,2.42-5.776,3.936-8.578,6.03
		c-1.634,1.22-3.023,2.769-4.523,4.169c0.195,0.192,0.389,0.385,0.583,0.578c1.133-0.655,2.266-1.309,3.4-1.963
		c0.227,0.295,0.454,0.589,0.681,0.884c-3.003,3.164-6.006,6.328-9.009,9.491C89.943,270.264,118.982,271.996,119.623,273.252z
		 M185.416,157.243c0.172-1.811,0.36-3.799,0.488-5.147c1.161,2.169,2.232,4.472,3.657,6.529c0.239,0.345,2.019-0.379,3.166-0.626
		c-1.093-1.823-2.157-2.979-2.478-4.313c-0.296-1.231-0.251-3.083,0.487-3.867c0.715-0.759,2.566-0.825,3.801-0.586
		c0.825,0.16,1.384,1.459,2.182,2.1c0.416,0.335,1.254,0.633,1.604,0.431c0.376-0.217,0.721-1.209,0.529-1.568
		c-1.03-1.922-2.011-3.959-3.478-5.515c-0.635-0.674-2.529-0.674-3.613-0.297c-1.903,0.662-3.638,1.823-5.413,2.828
		c-1.281,0.726-2.849,1.283-3.68,2.377c-0.99,1.304-1.416,3.077-1.888,4.705c-0.112,0.385,0.444,1.225,0.898,1.464
		C182.81,156.355,184.062,156.725,185.416,157.243z M94.563,136.092c-5.078,2.41-6.643,9.73-4.065,17.824
		c0.855-2.557,1.595-4.773,2.335-6.99c0.175,0.053,0.35,0.107,0.525,0.161c-0.189,2.438-0.378,4.877-0.566,7.315
		c0.188,0.004,0.375,0.009,0.564,0.013c0.737-2.096,1.473-4.193,2.209-6.289c0.264,0.085,0.529,0.17,0.794,0.255
		c-0.415,1.943-0.83,3.885-1.245,5.828c0.214,0.089,0.428,0.179,0.642,0.269c0.537-0.683,1.075-1.365,1.723-2.188
		c0.169,0.882,0.311,1.628,0.34,1.78c4.409-5.356-2.195-9.822-1.105-15.796c-1.694,1.511-2.747,2.45-3.799,3.39
		c-0.251-0.201-0.502-0.403-0.753-0.604C92.874,139.583,93.588,138.106,94.563,136.092z M161.905,106.023
		c-0.114-0.474-0.228-0.948-0.343-1.421c-24.727-8.127-31.944-8.781-37.023-4.264c4.926,0.183,10.851-0.223,16.526,0.788
		c5.914,1.053,11.565,3.539,17.38,5.233C159.477,106.66,160.745,106.156,161.905,106.023z M87.34,122.676
		c-0.026-0.422-0.053-0.844-0.079-1.266c2.602,0.316,5.204,0.632,7.778,0.945c-4.565-4.564-16.069-0.933-18.758,5.709
		c1.712-1.246,3.608-2.627,5.504-4.007c0.192,0.249,0.385,0.499,0.577,0.748c-1.559,2.05-3.119,4.1-4.679,6.15
		c0.28,0.24,0.561,0.48,0.841,0.72c1.153-0.859,2.306-1.718,4.088-3.045c-0.769,2.033-1.268,3.354-1.67,4.419
		c2.923-2.311,5.834-4.612,8.714-6.889c-0.742-0.207-1.52-0.425-2.299-0.643c0.07-0.374,0.141-0.747,0.212-1.121
		c2.248,0.444,4.495,0.888,6.743,1.332c0.07-0.282,0.141-0.564,0.211-0.847C92.128,124.147,89.734,123.411,87.34,122.676z
		 M217.901,137.509c1.355-7.581,0.142-11.142-4.709-14.403c0.478,1.336,0.866,2.421,1.254,3.506c-0.435,0.36-0.869,0.72-1.303,1.08
		c-0.715-1.605-1.43-3.21-2.145-4.815c-0.321,0.309-0.641,0.618-0.962,0.927c1.38,2.733,2.76,5.466,4.14,8.199
		c-0.187,0.11-0.374,0.22-0.562,0.33c-0.503-0.437-1.006-0.875-1.959-1.703c0.483,2.545,0.863,4.547,1.047,5.517
		c1.529,0.789,2.281,1.177,3.176,1.638c0-2.534,0-4.972,0-7.41c0.304-0.04,0.608-0.079,0.913-0.118
		C217.129,132.469,217.467,134.681,217.901,137.509z M94.458,129.618c-6.688-0.862-11.496,2.731-13.29,10.299
		c1.399-2.065,2.347-3.465,3.294-4.864c0.118,0.06,0.235,0.121,0.353,0.181c-0.585,2.081-1.17,4.161-1.754,6.242
		c0.188,0.047,0.375,0.094,0.563,0.14c0.695-1.521,1.389-3.042,2.321-5.083c0.418,1.151,0.636,1.75,0.853,2.349
		c-0.259-0.299-0.517-0.599-0.776-0.898c2.059-1.538,4.117-3.077,6.529-4.88c-1.356-0.418-2.265-0.697-3.676-1.132
		C90.917,131.112,92.543,130.425,94.458,129.618z M201.986,221.654c0.105-7.953-6.504-20.915-12.476-24.443
		c-0.421,3.198,0.809,5.549,3.331,7.521c1.41,1.102,2.76,2.552,3.537,4.139C198.421,213.047,200.135,217.384,201.986,221.654z
		 M169.622,162.075c0.996-6.916-1.251-12.089-5.978-14.474c0.649,0.936,1.27,1.832,1.891,2.728
		c-0.118,0.117-0.236,0.234-0.354,0.352c-1.146-0.736-2.292-1.471-4.285-2.75c1.577,2.096,2.482,3.299,3.387,4.502
		c-0.158,0.145-0.316,0.291-0.474,0.436c-0.746-0.622-1.491-1.244-2.237-1.867c-0.153,0.161-0.305,0.323-0.458,0.484
		c1.658,2.175,3.315,4.35,5.359,7.032c0.085-1.531,0.124-2.223,0.162-2.915c0.273-0.056,0.546-0.112,0.82-0.168
		C168.109,157.439,168.763,159.443,169.622,162.075z M151.031,162.557c-0.811,3.23,0.146,5.87,2.884,7.522
		c1.184,0.714,2.843,0.641,4.548,0.978c-0.723-1.134-1.227-1.923-1.932-3.028c1.505,0.323,2.544,0.547,3.987,0.857
		c-2.2-3.371-4.113-6.302-6.026-9.232c-0.181,0.089-0.363,0.177-0.545,0.266c0.525,1.978,1.049,3.956,1.764,6.651
		c-1.158-0.9-1.749-1.358-2.45-1.904c0,0.874,0,1.534,0,2.195c-0.187,0.049-0.374,0.097-0.561,0.145
		C152.143,165.523,151.587,164.04,151.031,162.557z M202.17,213.068c1.408,8.627,2.664,16.323,3.92,24.019
		C207.839,228.821,207.281,220.973,202.17,213.068z M195.078,163.511c-4.144,1.222-8.413,3.081-12.844,3.624
		c-4.874,0.598-8.522,2.768-11.299,5.179c3.891-1.076,8.548-2.156,13.057-3.671C188.044,167.281,193.559,168.548,195.078,163.511z
		 M195.599,263.021c-2.892-7.765-5.452-14.638-8.012-21.51C187.404,249.293,189.153,256.363,195.599,263.021z M192.731,251.413
		c0.5-0.118,1-0.236,1.5-0.354c-1.807-5.978-3.615-11.956-5.422-17.933c-0.713,0.224-1.426,0.447-2.14,0.671
		C188.69,239.668,190.711,245.541,192.731,251.413z M169.086,133.079c4.211-0.866,7.95,5.474,11.68-0.398
		C176.07,129.215,175.136,129.228,169.086,133.079z M201.439,129.884c0.81,1.13,1.621,2.259,2.431,3.389
		c-0.512,0.423-1.024,0.846-1.536,1.269c-1.007-1.417-2.014-2.835-3.021-4.252c-0.103,0.102-0.205,0.204-0.307,0.306
		c2.363,2.669,4.725,5.339,7.111,8.034c0.318-0.43,0.811-1.099,1.583-2.143c0.538,1.853,0.936,3.221,1.485,5.11
		C210.59,134.739,205.384,132.716,201.439,129.884z M201.172,123.308c-0.304,0.273-0.608,0.546-0.911,0.819
		c2.209,2.557,4.418,5.115,6.627,7.671c0.221-0.187,0.442-0.375,0.663-0.562c-0.974-1.311-1.948-2.622-3.328-4.479
		c1.425,0.471,2.055,0.68,2.686,0.888c0.209-0.209,0.419-0.418,0.628-0.627c-1.819-2.655-3.638-5.31-5.456-7.965
		c-0.338,0.201-0.676,0.403-1.015,0.605c0.811,1.67,1.621,3.34,2.902,5.979C202.466,124.385,201.819,123.847,201.172,123.308z
		 M193.889,218.316c1.063,4.328,2.858,8.056,7.448,9.806C201.709,222.506,197.382,220.714,193.889,218.316z M148.425,175.732
		c0.227-0.287,0.454-0.573,0.681-0.859c1.305,0.521,2.61,1.041,3.817,1.522c-0.609-1.469-1.372-2.971-1.829-4.561
		c-0.211-0.735,0.178-1.64,0.295-2.469c-1.358-0.046-2.747-0.259-4.054-0.022c-0.329,0.06-0.7,1.63-0.521,2.381
		C147.144,173.11,147.866,174.401,148.425,175.732z M203.538,235.02c-0.248-6.019-5.652-5.816-7.946-8.761
		C195.89,231.076,199.519,232.74,203.538,235.02z M190.054,227.172c-0.502,0.102-1.005,0.204-1.507,0.306
		c-0.82,5.129,3.881,8.404,4.413,13.079c0.481-0.16,0.962-0.32,1.443-0.481C192.953,235.775,191.504,231.473,190.054,227.172z
		 M192.138,170.276c-2.61,0.85-5.583,1.974-8.64,2.774c-3.658,0.957-6.985,2.229-8.979,5.246c3.578-1.329,7.035-3.311,10.685-3.776
		C188.964,174.041,190.91,172.153,192.138,170.276z M104.874,236.844c-0.361-0.223-0.723-0.446-1.084-0.67
		c-3.315,6.372-6.63,12.744-9.944,19.116c0.333,0.173,0.665,0.346,0.998,0.519C98.187,249.488,101.53,243.166,104.874,236.844z
		 M161.486,182.762c-8.543,0.486-10.244,1.866-9.961,8.139C152.655,185.368,157.235,184.282,161.486,182.762z M161.992,160.634
		c0.96,1.169,1.674,2.037,2.387,2.905c0.327-0.241,0.654-0.481,0.98-0.722c-1.66-2.482-3.321-4.964-4.981-7.446
		c-0.393,0.205-0.785,0.41-1.178,0.614c0.436,2.326,0.872,4.651,1.308,6.977c0.335-0.063,0.669-0.126,1.004-0.189
		C161.647,162.169,161.783,161.565,161.992,160.634z M210.487,148.367c0.171,2.337-0.093,4.745,0.435,4.934
		c2.746,0.979,1.345,2.694,1.127,4.207c-0.158,1.099-0.396,2.188-0.694,3.799C214.536,156.981,214.384,153.023,210.487,148.367z
		 M215.094,97.089c-1.678-1.281-2.734-2.284-3.98-2.906c-0.337-0.168-1.863,1.121-1.808,1.233c0.671,1.366,1.535,2.637,2.348,3.933
		C212.546,98.763,213.438,98.177,215.094,97.089z M203.035,246.038c-0.398,0.323-0.795,0.645-1.192,0.968
		C204.054,249.732,205.313,248.697,203.035,246.038z M207.067,248.739c0.658-5.653-3.247-6.469-6.433-7.91
		C202.63,243.283,204.625,245.736,207.067,248.739z M190.218,221.366c-0.642,0.246-1.286,0.492-1.929,0.739
		c1.589,2.887,3.178,5.774,4.767,8.661c0.425-0.204,0.851-0.407,1.276-0.611C192.962,227.226,191.59,224.296,190.218,221.366z
		 M134.881,216.885c-0.245-0.377-0.49-0.752-0.734-1.129c-3.891,2.544-7.782,5.088-11.673,7.632c0.192,0.293,0.383,0.586,0.575,0.88
		C126.993,221.807,130.937,219.346,134.881,216.885z M199.107,234.602c-0.221,0.263-0.442,0.527-0.663,0.79
		c2.247,1.881,4.494,3.763,7.35,6.155C205.482,236.123,201.569,236.228,199.107,234.602z M183.107,192.01
		c-2.153,5.507,1.925,6.603,4.382,8.61C186.191,198.07,184.893,195.52,183.107,192.01z M181.84,170.666
		c-4.398,0.268-10.05,5.219-10.664,8.68C174.356,176.757,178.238,173.598,181.84,170.666z M218.167,94.361
		c-0.275-0.082-0.549-0.164-0.824-0.246c-0.592,1.389-1.348,2.738-1.709,4.184c-0.183,0.732,0.347,1.642,0.555,2.472
		c0.829-0.66,2.214-1.214,2.366-2.005C218.823,97.375,218.338,95.838,218.167,94.361z M187.162,183.09
		c-0.452,0.326-0.905,0.653-1.357,0.979c2.388,3.004,4.776,6.008,7.164,9.012c0.278-0.196,0.555-0.393,0.833-0.589
		C191.589,189.357,189.375,186.224,187.162,183.09z M210.582,99.943c-0.383,0.578-0.766,1.156-1.149,1.733
		c1.17,0.839,2.265,1.854,3.559,2.402c0.348,0.148,1.298-1.125,1.971-1.746C213.503,101.536,212.042,100.739,210.582,99.943z
		 M189.188,214.361c0.486-0.387,0.973-0.773,1.459-1.16c-1.67-2.072-3.34-4.145-5.01-6.218c-0.378,0.284-0.756,0.57-1.134,0.854
		C186.065,210.012,187.627,212.187,189.188,214.361z"/>
	<path fill="#010101" d="M129.589,194.57c2.759-1.615,5.519-3.231,8.278-4.847c0.701-0.331,1.401-0.662,2.101-0.993
		c-1.822,3.534-3.517,7.174-7.672,8.617c0.001-0.001,0.179,0.079,0.179,0.079C131.936,196.048,128.033,198.067,129.589,194.57z"/>
	<path fill="#010101" d="M132.476,197.427l-0.179-0.079c0.078,0.661,0.472,1.554,0.183,1.946c-2.519,3.437-5.159,6.784-7.623,9.975
		C123.881,204.911,127.404,199.207,132.476,197.427z"/>
	<path fill="#010101" d="M104.874,236.844c-3.344,6.322-6.687,12.644-10.031,18.965c-0.333-0.173-0.665-0.346-0.998-0.519
		c3.315-6.372,6.63-12.744,9.944-19.116C104.151,236.397,104.512,236.621,104.874,236.844z"/>
	<path fill="#FFFFFF" d="M216.551,284.307c-2.969-3.851-5.938-7.703-8.908-11.554c0.271-0.2,0.542-0.4,0.813-0.601
		C211.516,276.024,216.922,284.12,216.551,284.307z"/>
	<path fill="#010101" d="M161.486,182.762c-4.252,1.519-8.831,2.605-9.961,8.139C151.242,184.628,152.943,183.249,161.486,182.762z"
		/>
	<path fill="#010101" d="M134.881,216.885c-3.944,2.461-7.888,4.922-11.832,7.383c-0.191-0.293-0.383-0.586-0.575-0.88
		c3.891-2.544,7.782-5.088,11.673-7.632C134.391,216.133,134.636,216.509,134.881,216.885z"/>
	<path fill="#010101" d="M125.225,252.916c-0.877,0.724-1.754,1.447-2.631,2.171c-0.116-0.098-0.231-0.197-0.347-0.296
		c5.326-5.876,10.653-11.751,15.979-17.626c-0.152-0.192-0.305-0.385-0.457-0.577c-2.902,1.781-5.803,3.561-8.704,5.342
		c-0.172-0.295-0.344-0.59-0.516-0.884c6.346-4.079,12.693-8.158,19.039-12.236c0.181,0.231,0.363,0.462,0.544,0.694
		c-0.463,0.419-0.855,1.004-1.398,1.233c-5.916,2.492-7.522,8.178-10.545,13.084c-3.254,5.281-8.302,9.457-12.567,14.114
		c-0.286-0.223-0.571-0.446-0.857-0.67c0.933-1.301,1.866-2.602,2.799-3.903C125.45,253.213,125.338,253.065,125.225,252.916z"/>
	<path fill="#010101" d="M146.397,219.061c2.037,4.992,1.571,7.283-2.413,10.067c-4.26,2.977-8.644,5.777-12.974,8.653
		c-0.182-0.265-0.364-0.53-0.547-0.795c4.468-3.049,8.936-6.097,12.225-8.341c1.048-3.987,1.805-6.867,2.563-9.748
		C145.634,218.952,146.016,219.006,146.397,219.061z"/>
	<path fill="#010101" d="M153.044,204.702c2.701,7.046-3.325,13.504-11.688,13.086c1.526-0.856,2.574-1.519,3.685-2.051
		c3.145-1.506,5.467-3.529,5.828-7.347C150.974,207.273,152.091,206.253,153.044,204.702z"/>
	<path fill="#010101" d="M142.673,219.501c-1.293,4.1-0.596,8.671-5.812,9.976C136.101,224.502,138.167,220.591,142.673,219.501z"/>
	<path fill="#010101" d="M155.285,212.965c2.164-5.011,5.511-3.403,9.151-3.257C162.528,214.936,158.813,212.49,155.285,212.965z"/>
	<path fill="#010101" d="M154.097,215.406c1.775,0.661,3.701,1.095,5.237,2.115c0.492,0.327-0.047,2.206-0.181,4.555
		c-2.593-2.1-4.274-3.462-5.955-4.823C153.497,216.637,153.797,216.022,154.097,215.406z"/>
	<path fill="#010101" d="M109.986,171.468c3.605-2.446,9.31-2.298,13.366,0.221c1.281,0.796,2.95,0.967,4.85,1.548
		c-0.648,0.375-1.168,0.683-1.693,0.98c-1.586,0.897-3.124,1.902-4.776,2.654c-1.822,0.829-3.817,2.079-5.611,1.898
		c-1.254-0.126-2.334-2.317-3.422-3.642C111.807,174.039,111.016,172.866,109.986,171.468z"/>
	<path fill="#010101" d="M144.343,142.185c-4.327-4.929-8.103-5.362-14.802-2.092c1.677-2.988,5.595-4.061,10.401-2.849
		c3.566,0.9,7.205,4.443,6.924,7.187c-0.106,1.039-1.214,2.227-2.187,2.816c-0.452,0.274-1.673-0.721-3.084-1.4
		c-4.237,1.641-5.458,0.941-6.022-5.026c-2.082,0.95-3.924,1.79-5.73,2.615C132.839,139.201,134.783,138.994,144.343,142.185z"/>
	<path fill="#010101" d="M146.856,136.953c-4.946-1.298-9.96-2.613-14.75-3.87C135.395,129.991,142.665,131.823,146.856,136.953z"/>
	<path fill="#010101" d="M115.906,165.657c-8.493-2.201-9.237-5.16-3.015-11.849C109.043,159.009,108.973,163.198,115.906,165.657z"
		/>
	<path fill="#010101" d="M185.965,125.541c-3.038-1.256-3.43-3.52-1.659-5.575c0.829-0.962,3.095-1.583,4.293-1.164
		c3.979,1.391,5.017,3.737,3.733,7.626c0.456-3.705-1.678-5.694-4.624-6.599c-1.045-0.321-2.561,0.892-4.098,1.498
		C184.622,123.139,185.293,124.34,185.965,125.541z"/>
	<ellipse fill="#010101" cx="110.529" cy="143.419" rx="2.603" ry="2.952"/>
</g>
</svg>
