<?xml version="1.0" encoding="utf-8"?>
<!-- Generator: Adobe Illustrator 17.0.0, SVG Export Plug-In . SVG Version: 6.00 Build 0)  -->
<!DOCTYPE svg PUBLIC "-//W3C//DTD SVG 1.1//EN" "http://www.w3.org/Graphics/SVG/1.1/DTD/svg11.dtd">
<svg version="1.1" id="Layer_1" xmlns="http://www.w3.org/2000/svg" xmlns:xlink="http://www.w3.org/1999/xlink" x="0px" y="0px"
	 width="595.28px" height="841.89px" viewBox="0 0 595.28 841.89" enable-background="new 0 0 595.28 841.89" xml:space="preserve">
<path fill="#FEBB86" d="M559.051,330.541c0,145.491-117.944,263.435-263.435,263.435c-138.954,0-263.435-110.059-263.435-263.435
	c0-145.491,117.944-263.435,263.435-263.435S559.051,185.049,559.051,330.541z"/>
<g>
	<path d="M213.314,504.599c-1.388-3.4-2.775-6.801-4.35-10.659c6.799-1.303,11.68-0.727,12.253,7.867
		c0.66-0.139,1.32-0.277,1.98-0.416c1.728-3.746,3.456-7.492,5.45-11.814c-5.011-1.274-12.823,4.032-13.236-5.242
		c-0.067-1.511,4.946-3.247,8.554-5.457c-1.06-5.739-18.137-2.57-9.885-16.579c3.187,3.017,6.094,5.77,8.868,8.397
		c1.769-1.26,4.206-2.996,6.643-4.732c0.449,4.161,0.898,8.322,1.465,13.575c1.161-1.513,2.542-3.404,4.02-5.216
		c2.017-2.474,3.703-6.346,6.244-7.052c7.245-2.013,8.734-6.979,9.278-13.291c0.263-3.052,1.314-6.035,2.244-10.07
		c-2.026-0.124-4.339-0.265-6.217-0.38c0.356,3.993,0.623,6.988,0.89,9.983c-2.749,0-5.497,0-8.395,0
		c0.633-3.177,1.181-5.93,2.098-10.535c-5.282,5.177-9.269,9.086-13.782,13.509c-2.97-7.824-2.97-7.824,8.965-17.359
		c-2.57-0.9-4.651-1.82-6.829-2.331c-1.837-0.431-3.785-0.388-7.088-0.678c7.523-7.418,12.804-4.53,17.982,0.253
		c3.203,2.959,5.93,4.246,6.06-2.029c8.963-1.273,7.259,8.77,12.34,11.916c-0.057-12.25-1.435-13.408-12.493-15.859
		c-3.43-0.76-6.964-3.894-9.105-6.9c-2.532-3.554-3.738-8.098-5.283-12.3c-2.458-6.681-4.886-13.251-13.301-14.459
		c-0.906-0.13-1.908-0.808-2.53-1.524c-8.59-9.872-17.184-19.742-25.644-29.726c-5.457-6.44-9.961-13.89-16.192-19.426
		c-11.344-10.079-13.629-21.616-8.146-35.052c5.034-12.338,13.907-20.094,27.59-22.033c10.766-1.526,20.182,0.201,27.886,9.782
		c7.253-17.291,18.219-31.025,32.824-41.518c19.077-13.705,40.134-21.364,64.133-19.831c6.472,0.413,13.065-1.033,19.599-1.664
		c4.708-0.455,9.407-1.006,14.116-1.449c1.468-0.138,3.884,0.497,4.291-0.175c3.877-6.407,6.741-1.256,9.848,0.679
		c0.979,0.61,1.818,1.445,3.427,2.751c0.484-4.108,0.863-7.328,1.242-10.548c0.787-0.401,1.575-0.803,2.362-1.204
		c3.686,4.501,7.372,9.002,10.954,13.375c1.535-2.719,3.212-5.688,4.888-8.657c1.024,0.227,2.047,0.454,3.071,0.68
		c-0.54,6.521-1.08,13.042-1.632,19.703c3.612-1.896,7.272-3.818,10.915-5.73c-0.759-2.027-1.727-4.612-3.223-8.606
		c3.877,1.308,5.945,2.005,10.045,3.388c-1.877-6.687-3.467-12.349-5.056-18.012c0.952-0.401,1.903-0.803,2.855-1.204
		c2.087,2.801,4.175,5.602,6.325,8.487c0.876-4.88,1.739-9.694,2.603-14.508c0.977-0.058,1.954-0.116,2.932-0.174
		c0.67,3.845,1.339,7.69,1.888,10.838c3.581-4.702,7.411-9.732,11.241-14.762c1.161,0.786,2.323,1.572,3.484,2.358
		c-3.219,4.513-6.437,9.027-9.656,13.54c0.27,0.36,0.54,0.721,0.81,1.081c2.512-1.331,5.025-2.662,7.559-4.004
		c6.12,11.599,11.898,22.551,18.187,34.47c0.206,0.042,2.053,0.415,3.899,0.789c-0.798,1.878-1.303,3.965-2.458,5.589
		c-2.125,2.989-4.633,5.706-6.212,9.677c1.645-0.502,3.291-1.004,4.945-1.509c1.726,6.384-0.926,9.467-12.948,14.316
		c3.284,0.99,5.827,1.757,8.37,2.524c0.104,0.859,0.207,1.719,0.311,2.578c-3.628,0.841-7.257,1.682-10.74,2.489
		c6.564,7.29,10.165,16.786,8.85,28.094c-0.215,1.847,2.614,4.048,4.406,6.616c-1.765,1.337-3.623,2.743-5.65,4.278
		c2.243,1.9,5.176,3.382,6.384,5.746c0.858,1.68-0.61,4.548-0.981,6.567c1.749,3.671,3.67,7.702,5.591,11.733
		c-2.768,0.122-5.537,0.244-8.849,0.39c0,3.211,0,7.007,0,12.96c-3.941-3.358-6.546-5.579-9.131-7.781
		c-2.254,3.485-4.632,7.133-6.981,10.8c-2.85,4.45-6.058,6.211-9.932,0.737c-8.557,8.305-16.646,16.156-25.106,24.367
		c2.417,12.471,5,26.337,7.873,40.144c0.542,2.606,1.852,5.266,3.467,7.402c13.111,17.342,19.54,37.337,23.921,58.271
		c0.715,3.417,2.583,7.303,5.169,9.502c16.555,14.076,6.822,18.582,3.163,8.565c-0.75,0.179-1.5,0.358-2.249,0.537
		c0,1.874,0,3.748,0,5.622c-0.447,0.056-0.894,0.112-1.342,0.168c-1.344-4.086-2.688-8.172-4.032-12.258
		c-0.372,0.049-0.744,0.098-1.116,0.148c0,4.806,0,9.613,0,14.419c-0.734,0.045-1.468,0.09-2.203,0.135
		c-0.37-7.709-0.74-15.417-1.11-23.126c-0.558,0.031-1.116,0.062-1.674,0.093c0,8.922-1.489,18.172,0.384,26.681
		c2.249,10.217-19.632,22.471-25.976,9.875c0.588,15.772,1.298,11.529,9.478,23.094c-4.023,1.884-4.023,1.884-4.023,1.884
		c-7.533,4.381-11.817,5.174-12.614,5.554c-23.918,10.339-35.654,11.072-50.965,14.241c-3.306,0.684-6.587-10.58-8.792-14.192
		c-2.652,3.143-5.179,6.138-6.89,8.166c2.744,5.402,2.813,8.937-3.048,8.633c-6.514,0.588-7.142-2.912-5.215-6.366
		c-2.755-3.326-6.049-7.301-9.575-11.557c-2.882,2.367-5.684,4.67-7.695,6.321c3.637,2.992,7.495,6.165,11.352,9.338
		c-0.178,0.784-0.676,2.437-0.854,3.221c-7.871,0-13.349,1.798-25.325,0.246c3.366-3.221,5.904-6.456,8.788-9.216
		c-6.124-0.509-11.016-8.157-16.566,0.195c1.536,3.174-3.241,7.297-6.91,7.336c-7.742,0.083-61.087-5.286-71.148-16.47
		c0,0,11.635,4.322,0,0c-7.973-1.342-19.996-8.452-17.472-7.23c11.535-12.739,27.709-24.098,31.752-42.562
		c-6.785-0.14-9.297,5.375-12.436,9.751c-3.102,4.324-5.774,8.957-9.821,12.891c0.514-1.961,1.029-3.921,1.851-7.057
		c-7.544,7.551-13.83,14.527-20.886,20.609c-0.92-0.481,2.974-3.131,0,0c-1.703,1.937,9.434-10.48,0,0
		c-2.112,2.346-4.414-1.594-10.337-4.195c30.169-22.579,9.963,1.892,0,0c19.704-20.359,22.243-23.54,46.006-39.444
		c5.206-3.484,5.617-8.484,4.746-13.973L213.314,504.599z M280.423,438.256c-9.59,3.367-16.254,14.153-14.406,22.395
		c4.658-6.034,9.652-12.365,14.415-18.864c0.544-0.743-0.201-2.43-0.348-3.68c7.858-2.73,11.064-9.611,14.508-16.295
		c-1.325,0.626-2.649,1.251-3.974,1.877c5.457-5.405,10.914-10.809,16.353-16.195c-10.39-12.741-7.206-27.418,0.452-40.805
		c7.048-12.32,16.349-22.604,16.306-38.779c-0.022-8.174,0.873-14.231-6.067-19.274c-0.763-0.554-1.242-1.551-1.718-2.416
		c-0.137-0.25,0.196-0.758,0.32-1.169c1.189,0.493,2.371,0.984,5.099,2.117c-3.647-5.692-6.418-10.018-10.061-15.703
		c3.816,2.725,6.265,4.474,8.714,6.222c0.493-0.588,0.986-1.176,1.479-1.764c-9.142-8.572-18.285-17.144-27.445-25.731
		c12.962,5.067,25.923,10.134,38.885,15.201c-0.319-2.34-1.435-4.066-3.008-4.768c-11.366-5.068-22.526-10.886-34.344-14.557
		c-9.805-3.045-20.383-4.264-30.69-4.736c-4.85-0.222-9.866,3.214-14.808,4.992c1.032,1.943,1.301,2.114,1.484,2.048
		c1.161-0.415,2.278-0.972,3.457-1.32c13.534-3.986,26.718-3.787,39.293,3.39c-1.452-0.362-2.907-0.714-4.356-1.087
		c-27.306-7.035-46.006,0.322-57.891,23.371c-2.869,5.564-6.432,11.595-3.309,18.517c12.526-2.705,15.256-1.925,17.334,4.687
		c-18.594-1.378-24.62,2.405-21.824,13.249c4.577-1.074,9.214-3.228,13.675-2.911c4.521,0.321,8.868,3.084,13.523,4.867
		c-3.08-7.721-10.865-9.993-21.776-7.074c5.369-4.635,11.395-3.849,17.713-1.979c4.652,1.377,6.799,4.31,5.627,8.878
		c-1.375,5.36-3.4,10.553-5.143,15.819c-0.413-0.137-0.825-0.274-1.238-0.411c0.572-3.658,1.145-7.316,1.406-8.986
		c-5.733-1.879-10.175-3.335-15.545-5.095c-0.524,1.615-1.332,4.103-2.18,6.715c-3.94-0.701-9.789-4.334-9.975,3.417
		c-0.255,10.588-0.67,21.535,1.631,31.73c2.889,12.795,8.401,25.005,12.885,37.43c5.251,14.55,10.617,17.279,25.626,13.31
		c0.531-0.141,1.196,0.222,2.305,0.458c-1.526,1.406-2.64,2.433-3.754,3.459c0.211,0.422,0.422,0.843,0.633,1.265
		c4.974-1.882,9.948-3.763,15.737-5.954c-2.867,3.801-4.928,6.533-6.989,9.266c0.609,0.513,1.218,1.027,1.827,1.54
		c1.567-0.69,3.134-1.379,4.7-2.069C272.021,439.467,279.401,435.649,280.423,438.256z M355.027,333.586
		c-3.641-0.253-7.283-0.506-10.924-0.758c0.045,0.342,0.09,0.683,0.136,1.025c2.172,0.971,4.344,1.942,6.516,2.913
		c-0.203,0.542-0.406,1.084-0.61,1.626c-2.474-0.236-4.947-0.471-9.535-0.908c5.487,8.105,9.97,14.726,14.452,21.346
		c0.293-0.086,0.586-0.173,0.88-0.259c-1.163-4.17-2.326-8.339-3.488-12.509c0.651-0.198,1.302-0.395,1.953-0.593
		c1.68,4.738,3.361,9.476,5.041,14.213c0.481-3.123,0.425-6.229-0.314-9.163c-0.75-2.976-2.174-5.782-3.303-8.662
		c0.454-0.204,0.908-0.408,1.362-0.612c1.85,3.436,3.7,6.872,5.822,10.815c2.185-7.92-1.472-12.93-6.269-17.512
		c3.489,1.655,6.977,3.311,10.701,5.077c-1.336-2.489-2.685-5.004-4.034-7.519c0.5-0.286,0.999-0.571,1.499-0.857
		c2.22,2.983,4.44,5.966,6.65,8.94c-1.742-14.089-5.989-17.066-20.997-13.575c2.865,0.636,4.632,1.028,8.066,1.79
		c-2.952,0.551-4.229,0.789-6.084,1.135C353.517,331.124,354.272,332.355,355.027,333.586z M348.027,297.051
		c-0.496,3.469-0.991,6.937-1.487,10.406c0.318-0.052,0.637-0.104,0.955-0.157c2.311-4.425,4.621-8.849,6.932-13.274
		c0.269,0.181,0.538,0.362,0.807,0.543c-1.398,4.278-2.797,8.555-4.195,12.833c0.657,0.182,1.315,0.364,1.972,0.545
		c1.75-3.472,3.5-6.944,5.25-10.416c0.391,0.182,0.783,0.363,1.174,0.545c-0.825,2.9-1.65,5.801-2.603,9.153
		c4.762,0.826,8.58,1.488,13.077,2.268c-3.743-6.767-8.534-12.702-1.978-19.482c-1.469,7.885,0.152,13.987,6.734,19.87
		c3.925,3.508,7.009,2.954,9.346,1.138c2.097-1.63,2.812-5.632,3.15-8.696c0.184-1.676-1.677-3.577-3.453-6.98
		c10.088,9.193,8.934,13.811-3.508,22.32c4.25,0.419,8.499,0.838,12.615,1.243c5.876-9.98,8.359-19.917,3.548-30.835
		c0.798-0.057,1.595-0.114,2.393-0.171c0.953,5.835,1.906,11.671,2.848,17.44c5.12-2.186,5.12-2.186,1.341-13.298
		c1.405-1.101,3.636-2.345,3.484-2.804c-2.293-6.951,2.429-16.507-7.451-20.663c-0.113-1.21,0.228-3.087-0.413-3.525
		c-4.724-3.228-9.539-6.358-14.541-9.13c-3.132-1.736-7.289-2.061-9.838-4.317c-5.222-4.623-7.271-1.96-9.165,3.048
		c-1.517-1.666-2.93-3.217-4.671-5.128c-1.533,2.251-2.76,4.053-4.144,6.084c-1.528-0.607-3.058-1.216-5.062-2.012
		c-0.634,2.001-1.189,3.754-1.796,5.673c4.736,1.736,9.315,2.881,13.346,5.046c3.897,2.092,7.23,5.234,10.787,7.896
		c0.22-0.39,0.685-1.216,1.151-2.042c0.582,0.161,1.165,0.322,1.747,0.483c-0.594,3.489-1.188,6.978-1.886,11.079
		c-5.52-4.173-9.514-7.193-13.509-10.212c-0.343,0.368-0.686,0.736-1.03,1.103c1.265,1.758,2.53,3.516,3.931,5.463
		c-2.588,0.503-4.7,0.914-8.98,1.746c4.458,2.097,6.81,3.203,9.534,4.484c-3.824,2.405-6.916,4.349-10.007,6.293
		c0.594-2.153,2.305-4.851,1.571-6.357c-2.179-4.473,0.184-13.622,5.499-16.55c-5.12-2.806-9.719-6.231-14.882-7.792
		c-2.762-0.835-8.633-1.506-7.49,5.598c0.329,2.044-1.154,4.411-1.916,6.591c-0.78,2.232-1.695,4.417-2.55,6.623
		c0.418,0.127,0.835,0.254,1.253,0.381c2.956-2.758,5.912-5.516,8.868-8.274c0.756,0.796,1.511,1.592,2.267,2.388
		c-2.629,1.186-5.258,2.373-7.887,3.559c0.568,0.635,1.136,1.269,1.704,1.904c2.03,0.24,4.059,0.48,5.12,0.605
		c-2.665,2.932-5.513,5.798-8.023,8.933c-1.367,1.708-3.452,5.144-2.991,5.612c1.976,2.007,4.778,3.2,6.875,4.448
		c0.149,2.961,0.33,6.544,0.565,11.218C344.814,304.178,346.421,300.614,348.027,297.051z M256.116,581.647
		c14.564-18.787,24.306-25.851,45.556-37.341c-10.426,10.569-20.851,21.138-31.277,31.707c0.784,0.788,1.568,1.576,2.351,2.365
		c3.787-3.566,7.575-7.132,11.567-10.891c0.403,0.653,0.94,1.522,2.23,3.612c8.341-8.892,16.432-17.517,24.523-26.142
		c0.252,0.218,0.504,0.435,0.756,0.653c-1.436,2.573-2.872,5.145-4.309,7.718c0.37,0.24,0.739,0.479,1.109,0.719
		c3.803-4.138,7.606-8.276,11.409-12.414c0.68,0.729,1.36,1.458,2.04,2.188c-10.242,9.232-20.484,18.464-31.23,28.15
		c0.688,1.024,1.832,2.725,3.117,4.637c4.461-3.297,8.426-6.228,12.514-9.25c5.462,4.573,10.659,8.924,15.558,13.025
		c2.838-3.237,6.326-7.216,10.252-11.693c4.725,5.95,8.564,10.784,13.028,16.405c-0.57-4.322-1.025-7.777-1.481-11.233
		c0.361-0.099,0.721-0.199,1.082-0.298c0.935,1.612,1.871,3.224,3.649,6.288c-0.359-5.878-0.605-9.908-0.923-15.099
		c4.84,3.544,0.309,15.105,10.97,9.097c2.05,4.361,5.879,5.411,5.442,1.765c0.702-0.161,1.404-0.321,2.105-0.482
		c2.251,5.038-1.95-4.041,5.511-15.378c3.808,11.515,4.117,0.728-0.287-15.158c0.641-0.175,1.283-0.351,1.924-0.526
		c3.213,11.075,6.427,22.15,9.64,33.225c0.608-0.167,1.217-0.334,1.825-0.501c-1.529-22.357-13.522-42.169-16.638-64.16
		c4.14,11.792,8.281,23.584,12.421,35.376c0.825-0.288,1.65-0.576,2.475-0.864c-3.906-11.82-8.014-23.577-11.666-35.475
		c-4.497-14.651-8.553-29.437-12.964-44.116c-0.595-1.979-2.145-3.671-3.252-5.496c-1.432,1.218-2.864,2.436-4.939,4.202
		c1.235-8.292,2.426-16.284,3.616-24.276c-0.41-0.151-0.821-0.302-1.231-0.453c-1.893,4.082-3.785,8.164-5.232,11.284
		c-2.395,0-4.896-0.782-6.069,0.135c-5.232,4.085-9.708,2.363-15.066-2.818c7.816-3.489,15.633-6.978,23.449-10.466
		c-0.248-0.688-0.497-1.376-0.745-2.063c-3.388,0.643-6.777,1.287-11.079,2.104c1.224-2.34,2.032-3.882,3.083-5.89
		c-5.369,4.256-10.114,8.121-14.973,11.84c-4.878,3.734-10.551,6.685-14.666,11.105c-8.329,8.947-15.902,18.603-23.664,28.067
		c-5.141,6.268-11.58,10.993-17.586,16.279c-13.331,11.732-24.652,25.715-37.332,38.234c-4.636,4.577-10.922,7.444-16.222,11.404
		c-3.09,2.308-5.717,5.236-8.553,7.884c0.368,0.364,0.735,0.729,1.103,1.093c2.143-1.238,4.286-2.475,6.429-3.713
		c0.429,0.557,0.858,1.114,1.287,1.671c-5.679,5.983-11.357,11.966-17.036,17.949C199.99,575.996,254.905,579.272,256.116,581.647z
		 M380.537,362.266c0.325-3.425,0.681-7.185,0.923-9.734c2.196,4.101,4.22,8.457,6.916,12.346c0.452,0.652,3.819-0.717,5.987-1.184
		c-2.067-3.447-4.079-5.633-4.686-8.156c-0.56-2.327-0.475-5.83,0.921-7.313c1.352-1.436,4.853-1.56,7.188-1.108
		c1.561,0.302,2.618,2.76,4.127,3.972c0.787,0.633,2.372,1.197,3.033,0.815c0.711-0.411,1.364-2.287,1-2.965
		c-1.948-3.634-3.803-7.487-6.577-10.429c-1.201-1.274-4.782-1.274-6.833-0.561c-3.598,1.252-6.879,3.447-10.236,5.348
		c-2.423,1.372-5.388,2.426-6.96,4.496c-1.873,2.466-2.677,5.819-3.571,8.897c-0.212,0.729,0.839,2.317,1.698,2.769
		C375.609,360.586,377.975,361.286,380.537,362.266z M208.726,322.266c-9.602,4.557-12.563,18.401-7.687,33.706
		c1.616-4.836,3.016-9.027,4.416-13.218c0.331,0.101,0.661,0.202,0.992,0.304c-0.357,4.611-0.714,9.222-1.071,13.833
		c0.355,0.008,0.71,0.017,1.066,0.025c1.393-3.964,2.785-7.929,4.178-11.893c0.5,0.161,1,0.322,1.501,0.483
		c-0.785,3.674-1.57,7.347-2.355,11.021c0.405,0.169,0.809,0.339,1.214,0.508c1.016-1.291,2.033-2.581,3.258-4.137
		c0.319,1.668,0.588,3.078,0.643,3.367c8.337-10.129-4.15-18.574-2.09-29.871c-3.204,2.858-5.195,4.634-7.185,6.41
		c-0.475-0.381-0.949-0.762-1.424-1.143C205.532,328.868,206.883,326.076,208.726,322.266z M336.075,265.404
		c-0.216-0.896-0.432-1.792-0.649-2.688c-46.76-15.369-60.409-16.605-70.014-8.063c9.315,0.347,20.521-0.421,31.251,1.49
		c11.184,1.992,21.871,6.692,32.867,9.896C331.484,266.608,333.882,265.655,336.075,265.404z M195.068,296.896
		c-0.05-0.798-0.1-1.597-0.15-2.395c4.92,0.598,9.841,1.196,14.709,1.788c-8.633-8.631-30.388-1.765-35.473,10.797
		c3.238-2.357,6.823-4.967,10.408-7.577c0.364,0.471,0.728,0.943,1.091,1.414c-2.949,3.877-5.899,7.754-8.848,11.631
		c0.53,0.454,1.06,0.908,1.59,1.362c2.18-1.624,4.36-3.248,7.731-5.759c-1.454,3.845-2.398,6.343-3.159,8.357
		c5.528-4.37,11.032-8.722,16.478-13.027c-1.403-0.392-2.875-0.804-4.348-1.216c0.133-0.707,0.266-1.413,0.4-2.12
		c4.251,0.84,8.501,1.679,12.751,2.519c0.133-0.534,0.266-1.067,0.399-1.601C204.121,299.678,199.595,298.287,195.068,296.896z
		 M441.968,324.947c2.562-14.336,0.268-21.071-8.906-27.237c0.903,2.526,1.638,4.578,2.372,6.631
		c-0.822,0.681-1.643,1.362-2.465,2.042c-1.352-3.035-2.704-6.071-4.056-9.106c-0.607,0.584-1.213,1.169-1.819,1.753
		c2.61,5.168,5.22,10.336,7.83,15.504c-0.354,0.208-0.708,0.416-1.062,0.624c-0.951-0.827-1.902-1.654-3.705-3.22
		c0.914,4.813,1.632,8.598,1.98,10.433c2.892,1.492,4.314,2.225,6.006,3.097c0-4.792,0-9.403,0-14.013
		c0.575-0.075,1.15-0.149,1.726-0.224C440.508,315.415,441.148,319.598,441.968,324.947z M208.527,310.024
		c-12.648-1.631-21.74,5.164-25.133,19.476c2.646-3.906,4.438-6.552,6.23-9.198c0.223,0.114,0.445,0.228,0.668,0.343
		c-1.106,3.935-2.212,7.869-3.317,11.804c0.355,0.088,0.71,0.177,1.065,0.265c1.314-2.876,2.627-5.752,4.39-9.612
		c0.791,2.177,1.203,3.31,1.614,4.442c-0.489-0.566-0.978-1.133-1.467-1.699c3.893-2.909,7.786-5.819,12.347-9.228
		c-2.564-0.79-4.283-1.319-6.951-2.141C201.831,312.849,204.907,311.551,208.527,310.024z M411.872,484.071
		c0.199-15.039-12.299-39.551-23.594-46.224c-0.797,6.047,1.529,10.494,6.3,14.223c2.666,2.084,5.219,4.826,6.688,7.828
		C405.129,467.795,408.371,475.996,411.872,484.071z M350.669,371.402c1.883-13.079-2.366-22.861-11.305-27.371
		c1.227,1.77,2.402,3.464,3.576,5.158c-0.223,0.222-0.447,0.443-0.67,0.665c-2.167-1.391-4.335-2.782-8.104-5.2
		c2.982,3.963,4.694,6.239,6.406,8.514c-0.299,0.275-0.598,0.55-0.896,0.824c-1.41-1.177-2.82-2.353-4.23-3.53
		c-0.289,0.305-0.577,0.61-0.866,0.915c3.135,4.113,6.269,8.227,10.135,13.298c0.161-2.895,0.234-4.204,0.306-5.513
		c0.517-0.106,1.033-0.211,1.55-0.317C347.807,362.636,349.045,366.426,350.669,371.402z M315.512,372.315
		c-1.533,6.109,0.277,11.101,5.453,14.224c2.239,1.351,5.376,1.213,8.6,1.849c-1.368-2.144-2.321-3.637-3.654-5.726
		c2.846,0.611,4.811,1.034,7.54,1.62c-4.161-6.375-7.778-11.917-11.396-17.459c-0.343,0.168-0.686,0.335-1.03,0.503
		c0.992,3.741,1.984,7.482,3.336,12.578c-2.19-1.702-3.307-2.569-4.633-3.6c0,1.652,0,2.901,0,4.15
		c-0.354,0.092-0.707,0.183-1.061,0.275C317.615,377.924,316.564,375.119,315.512,372.315z M412.219,467.835
		c2.663,16.314,5.038,30.868,7.413,45.422C422.94,497.625,421.885,482.783,412.219,467.835z M398.808,374.119
		c-7.837,2.31-15.91,5.826-24.289,6.853c-9.217,1.13-16.116,5.234-21.368,9.793c7.359-2.035,16.164-4.077,24.692-6.943
		C385.506,381.247,395.936,383.644,398.808,374.119z M399.794,562.299c-5.469-14.685-10.31-27.681-15.151-40.678
		C384.295,536.338,387.604,549.709,399.794,562.299z M394.37,540.348c0.946-0.223,1.891-0.446,2.837-0.669
		c-3.418-11.304-6.836-22.609-10.254-33.913c-1.349,0.423-2.697,0.845-4.046,1.268C386.728,518.138,390.549,529.243,394.37,540.348z
		 M349.656,316.569c7.964-1.637,15.034,10.352,22.087-0.752C362.862,309.262,361.096,309.287,349.656,316.569z M410.838,310.528
		c1.532,2.136,3.065,4.272,4.597,6.408c-0.968,0.8-1.936,1.6-2.904,2.4c-1.904-2.68-3.808-5.361-5.712-8.041
		c-0.194,0.193-0.387,0.386-0.581,0.579c4.468,5.048,8.936,10.096,13.448,15.193c0.601-0.814,1.534-2.078,2.993-4.052
		c1.018,3.504,1.77,6.091,2.808,9.663C428.142,319.709,418.297,315.882,410.838,310.528z M410.333,298.091
		c-0.574,0.516-1.149,1.032-1.723,1.549c4.178,4.836,8.355,9.672,12.533,14.507c0.418-0.354,0.835-0.709,1.253-1.063
		c-1.842-2.479-3.683-4.958-6.293-8.471c2.694,0.891,3.887,1.285,5.079,1.679c0.396-0.395,0.792-0.79,1.188-1.185
		c-3.439-5.021-6.879-10.042-10.318-15.062c-0.64,0.381-1.279,0.763-1.919,1.144c1.533,3.158,3.065,6.316,5.487,11.307
		C412.779,300.129,411.556,299.11,410.333,298.091z M396.559,477.758c2.01,8.185,5.404,15.235,14.084,18.544
		C411.347,485.683,403.165,482.293,396.559,477.758z M310.584,397.23c0.429-0.542,0.858-1.083,1.288-1.625
		c2.468,0.985,4.936,1.969,7.218,2.879c-1.152-2.778-2.595-5.618-3.458-8.625c-0.399-1.389,0.336-3.102,0.557-4.669
		c-2.569-0.087-5.195-0.49-7.667-0.042c-0.623,0.113-1.323,3.083-0.985,4.502C308.161,392.27,309.527,394.713,310.584,397.23z
		 M414.737,541.015 M414.806,509.348c-0.469-11.382-10.688-10.999-15.026-16.567C400.344,501.889,407.207,505.036,414.806,509.348z
		 M389.308,494.506c-0.95,0.193-1.9,0.386-2.85,0.578c-1.551,9.7,7.339,15.893,8.345,24.734c0.909-0.303,1.819-0.606,2.728-0.909
		C394.79,510.775,392.049,502.64,389.308,494.506z M393.249,386.912c-4.935,1.607-10.557,3.733-16.338,5.245
		c-6.917,1.81-13.21,4.215-16.98,9.92c6.766-2.513,13.303-6.261,20.206-7.14C387.246,394.032,390.926,390.461,393.249,386.912z
		 M228.225,512.797c-0.683-0.422-1.367-0.844-2.05-1.267c-6.268,12.05-12.537,24.099-18.805,36.149
		c0.629,0.327,1.258,0.655,1.887,0.982C215.579,536.707,221.902,524.752,228.225,512.797z M335.283,410.524
		c-16.155,0.919-19.372,3.528-18.837,15.391C318.583,415.451,327.243,413.397,335.283,410.524z M336.24,368.677
		c1.816,2.211,3.165,3.852,4.514,5.494c0.618-0.455,1.236-0.91,1.853-1.366c-3.14-4.694-6.28-9.387-9.42-14.081
		c-0.743,0.387-1.485,0.775-2.228,1.162c0.825,4.398,1.649,8.796,2.474,13.194c0.633-0.119,1.265-0.238,1.898-0.357
		C335.588,371.58,335.844,370.438,336.24,368.677z M427.947,345.479c0.323,4.419-0.176,8.974,0.822,9.33
		c5.193,1.852,2.544,5.094,2.132,7.956c-0.299,2.079-0.749,4.137-1.313,7.184C435.605,361.769,435.318,354.285,427.947,345.479z
		 M436.66,248.509c-3.174-2.422-5.17-4.32-7.527-5.495c-0.638-0.318-3.523,2.12-3.419,2.331c1.268,2.583,2.902,4.987,4.441,7.437
		C431.841,251.675,433.528,250.567,436.66,248.509z M413.856,530.184c-0.752,0.61-1.503,1.22-2.255,1.83
		C415.782,537.168,418.163,535.212,413.856,530.184z M421.481,535.291c1.245-10.69-6.141-12.233-12.166-14.958
		C413.089,524.973,416.863,529.613,421.481,535.291z M389.618,483.527c-1.215,0.466-2.431,0.931-3.647,1.397
		c3.005,5.46,6.01,10.919,9.015,16.379c0.804-0.385,1.609-0.77,2.413-1.155C394.806,494.608,392.212,489.067,389.618,483.527z
		 M284.971,475.053c-0.463-0.712-0.926-1.423-1.388-2.135c-7.358,4.811-14.716,9.621-22.074,14.432
		c0.363,0.555,0.725,1.109,1.088,1.664C270.054,484.361,277.512,479.707,284.971,475.053z M406.428,508.557
		c-0.418,0.498-0.835,0.996-1.253,1.494c4.249,3.558,8.498,7.117,13.899,11.639C418.483,511.434,411.083,511.632,406.428,508.557z
		 M376.169,428.013c-4.071,10.414,3.641,12.486,8.287,16.282C382.002,439.472,379.547,434.65,376.169,428.013z M373.773,387.649
		c-8.316,0.507-19.005,9.869-20.166,16.415C359.622,399.168,366.962,393.193,373.773,387.649z M442.472,243.351
		c-0.52-0.155-1.039-0.31-1.559-0.465c-1.12,2.627-2.549,5.177-3.231,7.913c-0.346,1.385,0.656,3.106,1.049,4.675
		c1.568-1.249,4.187-2.296,4.474-3.792C443.711,249.05,442.794,246.143,442.472,243.351z M383.838,411.143
		c-0.855,0.617-1.711,1.234-2.566,1.851c4.516,5.681,9.032,11.362,13.548,17.043c0.525-0.371,1.05-0.743,1.575-1.114
		C392.21,422.996,388.024,417.07,383.838,411.143z M428.128,253.906c-0.724,1.093-1.449,2.186-2.173,3.278
		c2.212,1.587,4.284,3.507,6.73,4.542c0.658,0.279,2.454-2.128,3.727-3.302C433.651,256.918,430.889,255.412,428.128,253.906z
		 M387.67,470.28c0.92-0.731,1.84-1.462,2.76-2.194c-3.158-3.919-6.316-7.838-9.475-11.758c-0.715,0.538-1.429,1.077-2.144,1.615
		C381.764,462.056,384.717,466.168,387.67,470.28z"/>
	<path d="M274.964,432.854c5.218-3.055,10.436-6.111,15.655-9.166c1.325-0.626,2.649-1.251,3.974-1.877
		c-3.445,6.684-6.65,13.566-14.508,16.295c0.001-0.001,0.338,0.15,0.338,0.15C279.401,435.649,272.021,439.467,274.964,432.854z"/>
	<path d="M280.423,438.256c0,0-0.338-0.15-0.338-0.15c0.147,1.25,0.892,2.938,0.347,3.68c-4.764,6.5-9.757,12.83-14.415,18.864
		C264.169,452.409,270.832,441.623,280.423,438.256z"/>
	<path d="M228.225,512.797c-6.323,11.955-12.646,23.91-18.969,35.865c-0.629-0.327-1.258-0.655-1.887-0.982
		c6.268-12.05,12.537-24.099,18.805-36.149C226.858,511.952,227.541,512.375,228.225,512.797z"/>
	<path fill="#FFFFFF" d="M439.415,602.553c-5.615-7.283-11.23-14.567-16.845-21.85c0.513-0.379,1.025-0.757,1.538-1.136
		C429.894,586.889,440.116,602.2,439.415,602.553z"/>
	<path d="M335.283,410.524c-8.04,2.872-16.7,4.927-18.837,15.391C315.911,414.052,319.128,411.444,335.283,410.524z"/>
	<path d="M284.971,475.053c-7.458,4.654-14.917,9.307-22.375,13.961c-0.362-0.555-0.725-1.109-1.088-1.664
		c7.358-4.811,14.716-9.621,22.074-14.432C284.045,473.63,284.508,474.342,284.971,475.053z"/>
	<path d="M266.711,543.191c-1.659,1.369-3.317,2.737-4.976,4.106c-0.219-0.186-0.437-0.372-0.656-0.559
		c10.072-11.111,20.145-22.222,30.217-33.333c-0.288-0.364-0.576-0.728-0.865-1.092c-5.487,3.368-10.974,6.735-16.46,10.103
		c-0.325-0.557-0.65-1.115-0.975-1.672c12.001-7.713,24.003-15.427,36.004-23.14c0.343,0.437,0.686,0.874,1.029,1.312
		c-0.875,0.793-1.617,1.899-2.644,2.331c-11.187,4.712-14.225,15.465-19.941,24.743c-6.154,9.987-15.7,17.883-23.766,26.691
		c-0.54-0.422-1.08-0.844-1.62-1.267c1.764-2.46,3.528-4.92,5.293-7.38C267.137,543.752,266.924,543.472,266.711,543.191z"/>
	<path d="M306.749,479.168c3.852,9.44,2.97,13.773-4.563,19.037c-8.056,5.63-16.346,10.924-24.534,16.364
		c-0.345-0.501-0.689-1.003-1.034-1.504c8.449-5.765,16.898-11.53,23.118-15.774c1.982-7.539,3.414-12.986,4.847-18.434
		C305.305,478.961,306.027,479.064,306.749,479.168z"/>
	<path d="M319.318,452.013c5.108,13.325-6.288,25.538-22.103,24.746c2.886-1.618,4.868-2.873,6.969-3.879
		c5.948-2.848,10.339-6.674,11.021-13.893C315.404,456.876,317.517,454.946,319.318,452.013z"/>
	<path d="M299.706,479.999c-2.445,7.753-1.128,16.397-10.99,18.866C287.277,489.457,291.185,482.061,299.706,479.999z"/>
	<path d="M323.556,467.64c4.093-9.476,10.422-6.436,17.305-6.16C337.253,471.367,330.228,466.741,323.556,467.64z"/>
	<path d="M321.309,472.256c3.357,1.25,6.999,2.071,9.904,4c0.931,0.618-0.088,4.171-0.343,8.614
		c-4.903-3.971-8.082-6.546-11.262-9.121C320.176,474.584,320.742,473.42,321.309,472.256z"/>
	<path d="M237.893,389.166c6.818-4.625,17.606-4.346,25.277,0.417c2.423,1.505,5.579,1.828,9.171,2.927
		c-1.225,0.71-2.208,1.291-3.201,1.853c-3,1.696-5.907,3.597-9.032,5.019c-3.446,1.568-7.218,3.931-10.611,3.59
		c-2.371-0.238-4.414-4.381-6.472-6.887C241.336,394.027,239.841,391.81,237.893,389.166z"/>
	<path d="M302.864,333.79c-8.182-9.322-15.324-10.14-27.991-3.957c3.171-5.651,10.581-7.68,19.67-5.387
		c6.743,1.702,13.626,8.402,13.094,13.591c-0.201,1.965-2.295,4.211-4.135,5.325c-0.855,0.518-3.163-1.363-5.833-2.648
		c-8.013,3.104-10.321,1.779-11.389-9.505c-3.938,1.797-7.421,3.386-10.836,4.945C281.109,328.147,284.786,327.755,302.864,333.79z"
		/>
	<path d="M307.616,323.896c-9.354-2.454-18.835-4.942-27.894-7.318C285.943,310.73,299.69,314.194,307.616,323.896z"/>
	<path d="M249.088,378.176c-16.061-4.163-17.467-9.758-5.702-22.408C236.109,365.605,235.976,373.527,249.088,378.176z"/>
	<path d="M381.574,302.314c-5.746-2.375-6.486-6.656-3.137-10.542c1.567-1.819,5.853-2.993,8.118-2.201
		c7.525,2.631,9.488,7.067,7.06,14.422c0.862-7.006-3.174-10.768-8.744-12.479c-1.976-0.607-4.843,1.687-7.75,2.833
		C379.034,297.771,380.304,300.043,381.574,302.314z"/>
	<ellipse cx="238.919" cy="336.122" rx="4.922" ry="5.582"/>
</g>
</svg>
