<?xml version="1.0"?>
<svg xmlns="http://www.w3.org/2000/svg" xmlns:xlink="http://www.w3.org/1999/xlink" xmlns:svgjs="http://svgjs.com/svgjs" version="1.1" width="512" height="512" x="0" y="0" viewBox="0 0 97.75 97.75" style="enable-background:new 0 0 512 512" xml:space="preserve" class=""><g>
<g xmlns="http://www.w3.org/2000/svg">
	<g>
		<path d="M50.729,33.67c0-6.775-4.039-17.311-11.826-17.311c-2.448,0-5.071,1.222-6.577,3.105    c-1.598,1.979-2.062,4.511-2.062,6.965c0,6.3,3.658,16.741,11.736,16.741c2.345,0,4.872-1.123,6.382-2.63    C50.541,38.369,50.729,35.365,50.729,33.67z" fill="#ff780f" data-original="#000000" style="" class=""/>
		<path d="M45.657,58.414c-0.748-0.094-1.218-0.094-2.156-0.094c-0.847,0-5.918,0.185-9.859,1.511    c-2.064,0.748-8.071,3.008-8.071,9.687c0,6.682,6.478,11.485,16.522,11.485c9.015,0,13.804-4.338,13.804-10.163    C55.896,66.027,52.798,63.496,45.657,58.414z" fill="#ff780f" data-original="#000000" style="" class=""/>
		<path d="M48.875,0C21.882,0,0,21.882,0,48.875S21.882,97.75,48.875,97.75S97.75,75.868,97.75,48.875S75.868,0,48.875,0z     M37.489,84.945c-13.616,0-20.184-6.488-20.184-13.455c0-3.385,1.687-8.18,7.227-11.475c5.818-3.576,13.709-4.043,17.936-4.334    c-1.319-1.692-2.816-3.479-2.816-6.395c0-1.597,0.47-2.539,0.934-3.669c-1.034,0.096-2.062,0.188-3.002,0.188    c-9.948,0-15.581-7.438-15.581-14.775c0-4.322,1.969-9.124,6.005-12.605c5.354-4.422,12.67-5.622,17.744-5.622H64.25l-6.105,3.836    h-5.816c2.158,1.786,6.658,5.549,6.658,12.703c0,6.957-3.938,10.259-7.879,13.36c-1.223,1.221-2.632,2.538-2.632,4.611    c0,2.065,1.41,3.193,2.44,4.047l3.383,2.628c4.132,3.479,7.888,6.679,7.886,13.177C62.184,76.012,53.635,84.945,37.489,84.945z     M78.005,47.725v9.464h-4.646v-9.464h-9.393v-4.697h9.393v-9.406h4.646v9.406h9.438v4.697H78.005z" fill="#ff780f" data-original="#000000" style="" class=""/>
	</g>
</g>
<g xmlns="http://www.w3.org/2000/svg">
</g>
<g xmlns="http://www.w3.org/2000/svg">
</g>
<g xmlns="http://www.w3.org/2000/svg">
</g>
<g xmlns="http://www.w3.org/2000/svg">
</g>
<g xmlns="http://www.w3.org/2000/svg">
</g>
<g xmlns="http://www.w3.org/2000/svg">
</g>
<g xmlns="http://www.w3.org/2000/svg">
</g>
<g xmlns="http://www.w3.org/2000/svg">
</g>
<g xmlns="http://www.w3.org/2000/svg">
</g>
<g xmlns="http://www.w3.org/2000/svg">
</g>
<g xmlns="http://www.w3.org/2000/svg">
</g>
<g xmlns="http://www.w3.org/2000/svg">
</g>
<g xmlns="http://www.w3.org/2000/svg">
</g>
<g xmlns="http://www.w3.org/2000/svg">
</g>
<g xmlns="http://www.w3.org/2000/svg">
</g>
</g></svg>
